<?xml version="1.0" standalone="no"?><!DOCTYPE svg PUBLIC "-//W3C//DTD SVG 1.1//EN" "http://www.w3.org/Graphics/SVG/1.1/DTD/svg11.dtd"><svg t="1732669474305" class="icon" viewBox="0 0 1024 1024" version="1.1" xmlns="http://www.w3.org/2000/svg" p-id="4698" xmlns:xlink="http://www.w3.org/1999/xlink" width="200" height="200"><path d="M686.933333 640c42.666667-46.933333 68.266667-110.933333 68.266667-174.933333 0-38.4-8.533333-72.533333-21.333333-106.666667l140.8-89.6c8.533333-8.533333 17.066667-17.066667 17.066666-34.133333s-8.533333-25.6-17.066666-34.133334L524.8 12.8c-8.533333-8.533333-29.866667-8.533333-38.4 0L132.266667 196.266667H128c-4.266667 8.533333-12.8 17.066667-12.8 34.133333s8.533333 25.6 17.066667 34.133333l136.533333 89.6c4.266667 4.266667 8.533333 4.266667 12.8 8.533334-12.8 34.133333-21.333333 72.533333-21.333333 106.666666 0 136.533333 106.666667 247.466667 247.466666 247.466667 34.133333 0 68.266667-8.533333 98.133334-21.333333 110.933333 38.4 192 136.533333 209.066666 256H196.266667c8.533333-85.333333 59.733333-166.4 132.266666-217.6 17.066667-8.533333 21.333333-34.133333 12.8-55.466667-4.266667-8.533333-12.8-17.066667-25.6-17.066667-8.533333 0-21.333333 0-29.866666 4.266667-106.666667 72.533333-170.666667 192-170.666667 324.266667v34.133333H896v-38.4c0-145.066667-81.066667-277.333333-209.066667-345.6z m-179.2-341.333333c93.866667 0 170.666667 76.8 170.666667 170.666666s-76.8 170.666667-170.666667 170.666667-170.666667-76.8-170.666666-170.666667 76.8-170.666667 170.666666-170.666666z m0-85.333334c-72.533333 0-136.533333 29.866667-183.466666 85.333334 0 0-4.266667-4.266667-8.533334-4.266667l-85.333333-55.466667 273.066667-145.066666 268.8 145.066666L682.666667 290.133333C644.266667 243.2 576 213.333333 507.733333 213.333333z" fill="#231815" p-id="4699"></path><path d="M887.466667 482.133333v-256c0-17.066667-17.066667-38.4-38.4-38.4-17.066667 0-38.4 17.066667-38.4 38.4v256c-12.8 12.8-21.333333 25.6-21.333334 42.666667 0 29.866667 25.6 55.466667 55.466667 55.466667s55.466667-25.6 55.466667-55.466667c8.533333-17.066667 0-29.866667-12.8-42.666667z" fill="#231815" p-id="4700"></path></svg>