<svg width="273" height="259" viewBox="0 0 273 259" fill="none" xmlns="http://www.w3.org/2000/svg">
<path d="M273 129.5C273 201.021 211.887 259 136.5 259C61.1131 259 0 201.021 0 129.5C0 57.9791 61.1131 0 136.5 0C211.887 0 273 57.9791 273 129.5Z" fill="#C8C2A5"/>
<path d="M101.62 193C89.7529 193 79.8862 190.133 72.0195 184.4C64.2862 178.667 58.8195 170.8 55.6195 160.8C52.4195 150.667 51.8195 139.133 53.8195 126.2L55.6195 114.6C57.6195 101.933 61.2862 91 66.6195 81.8C72.0862 72.6 79.0195 65.5333 87.4195 60.6C95.9529 55.5333 105.686 53 116.62 53C126.753 53 135.153 55.0667 141.82 59.2C148.486 63.2 153.086 68.4667 155.62 75C158.286 81.4 158.686 88.2667 156.82 95.6L132.42 101.4C136.02 88.0667 136.353 77.8667 133.42 70.8C130.62 63.6 124.886 60 116.22 60C108.353 60 101.42 63.4667 95.4195 70.4C89.5529 77.3333 85.3529 88.7333 82.8195 104.6L77.8195 136.2C75.2862 152.867 75.9529 165.333 79.8195 173.6C83.6862 181.867 91.0862 186 102.02 186C106.02 186 109.82 185.2 113.42 183.6C117.153 181.867 120.553 178.933 123.62 174.8C126.82 170.667 129.42 164.933 131.42 157.6L145.62 162.4C140.686 173.6 134.353 181.533 126.62 186.2C119.02 190.733 110.686 193 101.62 193Z" fill="white"/>
<path d="M213.675 178.456C210.689 183.661 206.934 187.288 202.411 189.336C197.889 191.299 193.281 192.28 188.587 192.28C182.358 192.28 177.153 190.829 172.971 187.928C168.875 185.027 166.017 181.016 164.395 175.896C162.859 170.691 162.689 164.632 163.883 157.72L164.395 154.904C165.505 148.931 167.595 143.725 170.667 139.288C173.825 134.765 177.793 131.224 182.571 128.664C187.35 126.104 192.683 124.824 198.571 124.824C203.009 124.824 206.721 125.549 209.707 127C212.694 128.451 214.955 130.371 216.491 132.76C218.027 135.064 218.795 137.539 218.795 140.184C218.795 144.621 217.302 148.419 214.315 151.576C211.329 154.733 207.19 157.251 201.899 159.128C196.694 160.92 190.635 162.072 183.723 162.584L178.859 162.968C176.385 179.523 180.011 187.8 189.739 187.8C191.617 187.8 193.665 187.416 195.883 186.648C198.102 185.795 200.193 184.387 202.155 182.424C204.203 180.461 205.782 177.859 206.891 174.616L213.675 178.456ZM180.395 153.24L179.499 158.488L183.595 158.232C189.739 157.805 194.433 156.653 197.675 154.776C201.003 152.813 203.265 150.467 204.459 147.736C205.739 145.005 206.379 142.317 206.379 139.672C206.379 136.429 205.611 133.912 204.075 132.12C202.625 130.243 200.534 129.304 197.803 129.304C193.963 129.304 190.465 131.224 187.307 135.064C184.15 138.819 181.846 144.877 180.395 153.24Z" fill="white"/>
</svg>
